<svg width="162" height="55" viewBox="0 0 162 55" fill="none" xmlns="http://www.w3.org/2000/svg">
<path d="M51.882 7.1679H42.4613V44.0314C40.6409 44.0314 38.8205 43.7129 37.0001 43.0757C35.1796 42.4386 34.2694 41.7104 34.2694 40.8912V26.4189C32.9496 26.7374 31.334 26.8967 29.4226 26.8967C25.5086 26.8967 22.1181 26.2368 19.251 24.917C17.8856 25.9638 16.1107 26.6237 13.9262 26.8967C14.8819 28.5351 16.6341 30.8334 19.1827 33.7916C21.7768 36.7042 24.0523 39.0708 26.0093 40.8912C25.6452 41.5739 24.9398 42.3248 23.893 43.144C22.8463 43.9632 21.9816 44.4865 21.2989 44.7141C16.4293 39.89 12.1968 34.4742 8.60149 28.4668C7.00862 25.5997 6.21219 23.1876 6.21219 21.2307C6.21219 18.0449 8.16914 16.4521 12.083 16.4521C13.3118 16.4521 14.4041 16.6113 15.3598 16.9299C15.6329 16.5203 15.7694 15.8832 15.7694 15.0185C15.7694 12.6974 14.973 10.0806 13.3801 7.1679H2.66237C0.887456 4.9834 4.66412e-07 2.5941 4.66412e-07 -9.53674e-07H49.2196C50.9945 2.1845 51.882 4.5738 51.882 7.1679ZM34.2694 7.1679H21.2989C22.2546 10.7632 22.7325 13.5849 22.7325 15.6329C22.7325 17.6353 22.5732 19.1827 22.2546 20.2749C23.3014 20.457 24.5074 20.548 25.8727 20.548C28.9675 20.548 31.7663 20.0474 34.2694 19.0462V7.1679ZM76.0572 19.3875H69.0258C64.0196 19.3875 61.5165 20.2294 61.5165 21.9133C61.5165 23.2331 62.1992 24.5757 63.5645 25.941C65.3849 25.2583 67.3874 24.917 69.5719 24.917C73.7134 24.917 76.8308 25.9865 78.9243 28.1255C81.0178 30.219 82.0645 32.4035 82.0645 34.679C82.0645 36.909 81.5184 38.866 80.4262 40.5499C79.3339 42.2338 77.7638 43.3715 75.7158 43.9632C75.2152 43.6446 74.487 42.7571 73.5313 41.3008C72.6211 39.799 72.0522 38.5929 71.8247 37.6827C73.0535 37.2276 74.1457 36.5677 75.1014 35.703C76.0572 34.7928 76.535 34.0191 76.535 33.382C76.535 32.6993 75.9889 32.1759 74.8966 31.8119C73.8499 31.4023 72.3708 31.1975 70.4594 31.1975C68.5479 31.1975 66.7958 31.7891 65.2029 32.9724C63.6555 34.1101 62.8819 35.5892 62.8819 37.4096C62.8819 39.2301 63.3825 40.8229 64.3837 42.1883C65.3849 43.5081 66.7958 44.6458 68.6162 45.6015C71.8929 47.3309 75.602 48.7418 79.7435 49.834C79.698 50.6077 79.4704 51.4952 79.0608 52.4964C78.6968 53.4976 78.3554 54.2485 78.0369 54.7492C72.257 53.3383 67.2281 51.3131 62.9501 48.6735C60.5381 47.2172 58.6266 45.4423 57.2158 43.3488C55.805 41.2553 55.0996 38.9798 55.0996 36.5222C55.0996 33.1544 56.4876 30.3783 59.2638 28.1938C55.9415 25.0991 54.2804 22.0498 54.2804 19.0462C54.2804 14.3131 58.0122 11.9465 65.476 11.9465H71.3468V7.1679H51.2084C49.4335 4.9834 48.546 2.5941 48.546 -9.53674e-07H84.7952C86.5701 2.1845 87.4575 4.5738 87.4575 7.1679H79.4022V15.2233C79.4022 16.0425 78.9698 16.9527 78.1051 17.9539C77.2859 18.9096 76.6033 19.3875 76.0572 19.3875ZM111.056 7.1679H101.703V44.0314C99.8828 44.0314 98.0624 43.7129 96.242 43.0757C94.4215 42.4386 93.5113 41.7104 93.5113 40.8912V7.1679H86.8213C85.0464 4.9834 84.1589 2.5941 84.1589 -9.53674e-07H108.393C110.168 2.1845 111.056 4.5738 111.056 7.1679ZM138.423 7.1679H128.934C129.526 10.0806 129.822 13.3573 129.822 16.9982C129.822 20.639 129.025 23.3697 127.432 25.1901C125.885 27.0105 123.746 27.9207 121.016 27.9207C121.789 29.2405 122.972 30.6968 124.565 32.2897C126.204 33.8826 127.41 35.0431 128.183 35.7713C130.732 38.1833 132.598 39.89 133.781 40.8912C133.417 41.5739 132.712 42.3248 131.665 43.144C130.618 43.9632 129.754 44.4865 129.071 44.7141C127.159 43.1667 125.111 41.3008 122.927 39.1163C120.742 36.8863 118.581 34.1329 116.442 30.8561C114.348 27.5339 113.301 24.6667 113.301 22.2546C113.301 19.0689 115.258 17.476 119.172 17.476C120.401 17.476 121.493 17.6353 122.449 17.9539C122.722 17.5443 122.859 16.9072 122.859 16.0425C122.859 12.8567 122.244 9.89854 121.016 7.1679H110.434C108.659 4.9834 107.772 2.5941 107.772 -9.53674e-07H135.761C137.536 2.1845 138.423 4.5738 138.423 7.1679ZM161.948 7.1679H152.596V44.0314C150.775 44.0314 148.955 43.7129 147.135 43.0757C145.314 42.4386 144.404 41.7104 144.404 40.8912V7.1679H137.714C135.939 4.9834 135.052 2.5941 135.052 -9.53674e-07H159.286C161.061 2.1845 161.948 4.5738 161.948 7.1679Z" fill="#60181E"/>
</svg>
